<?xml version="1.0" encoding="UTF-8" standalone="no"?>
<!-- Generator: Adobe Illustrator 23.0.1, SVG Export Plug-In . SVG Version: 6.00 Build 0)  -->
<svg xmlns:dc="http://purl.org/dc/elements/1.1/" xmlns:cc="http://creativecommons.org/ns#" xmlns:rdf="http://www.w3.org/1999/02/22-rdf-syntax-ns#" xmlns:svg="http://www.w3.org/2000/svg" xmlns="http://www.w3.org/2000/svg" xmlns:sodipodi="http://sodipodi.sourceforge.net/DTD/sodipodi-0.dtd" xmlns:inkscape="http://www.inkscape.org/namespaces/inkscape" version="1.1" id="Layer_1" x="0px" y="0px" viewBox="0 0 182 56" style="enable-background:new 0 0 182 56;" xml:space="preserve" sodipodi:docname="[EN]-snap-store-black.svg" inkscape:version="0.92.3 (2405546, 2018-03-11)" inkscape:export-filename="C:\Users\Gebruiker\Pictures\OpenStore\open-store-badges-master\EN\[EN]-snap-store-black@2x.png" inkscape:export-xdpi="192" inkscape:export-ydpi="192"><metadata id="metadata24"><rdf:RDF><cc:Work rdf:about=""><dc:format>image/svg+xml</dc:format><dc:type rdf:resource="http://purl.org/dc/dcmitype/StillImage"/></cc:Work></rdf:RDF></metadata><defs id="defs22"/><sodipodi:namedview pagecolor="#ffffff" bordercolor="#666666" borderopacity="1" objecttolerance="10" gridtolerance="10" guidetolerance="10" inkscape:pageopacity="0" inkscape:pageshadow="2" inkscape:window-width="1680" inkscape:window-height="1003" id="namedview20" showgrid="false" inkscape:zoom="3.7472527" inkscape:cx="34.715194" inkscape:cy="-20.714983" inkscape:window-x="1276" inkscape:window-y="-4" inkscape:window-maximized="1" inkscape:current-layer="Black-badge"/>
<style type="text/css" id="style2">
	.st0{fill-rule:evenodd;clip-rule:evenodd;fill:#252525;stroke:#CDCDCD;}
	.st1{fill:#82BEA0;}
	.st2{fill:#FA6441;}
	.st3{fill:#FFFFFF;}
	.st4{font-family:'Ubuntu';}
	.st5{font-size:12px;}
	.st6{font-size:24px;}
</style>
<title id="title4">[EN]-snap-store-black</title>
<desc id="desc6">Created with Sketch.</desc>
<g id="g17">
	<g id="Black-badge">
		<path id="Rectangle-path" class="st0" d="M2,0h178c1.1,0,2,0.9,2,2v52c0,1.1-0.9,2-2,2H2c-1.1,0-2-0.9-2-2V2C0,0.9,0.9,0,2,0z"/>
		
		<text transform="translate(50,17)" class="st3 st4 st5" id="text12" style="font-size:12px;font-family:Ubuntu;fill:#ffffff">Download from the</text>


		<text transform="translate(50,41)" class="st3 st4 st6" id="text14" style="font-size:24px;font-family:Ubuntu;fill:#ffffff">OpenStore</text>


	<g id="g997" transform="matrix(0.17439516,0,0,0.17439516,-78.002931,68.463346)" style="stroke-width:5.73410416"><g transform="translate(396,-510.64792)" id="layer1" inkscape:label="Layer 1" style="stroke-width:5.73410416"><path inkscape:connector-curvature="0" id="path2996" d="m 196.44559,178.40886 -0.69593,1.47885 c -6.36829,13.49189 -12.42344,27.34589 -18.42729,41.19921 -6.0023,13.85334 -12.2456,28.76575 -18.42726,44.06973 -1.72302,4.39492 -3.47486,8.97496 -5.21456,13.47405 h 39.2033 c 3.17743,-8.38719 6.30187,-16.52948 9.21123,-24.16878 4.48272,-11.3797 8.46804,-20.59324 12.08188,-29.11732 3.45845,8.23766 6.95833,17.0375 11.38598,28.4262 3.03632,7.80914 6.1334,16.23425 9.30305,24.8599 h 40.06835 c -1.83483,-4.50424 -3.70096,-9.08094 -5.47551,-13.47405 -6.00328,-15.31299 -11.63814,-30.20699 -17.64438,-44.06973 -6.00402,-13.85328 -12.14617,-27.7096 -18.51427,-41.19921 l -0.69593,-1.47885 z M 131.25175,287.0589 c -12.32756,0 -22.25001,9.92702 -22.25001,22.25467 0,12.32763 9.92245,22.25001 22.25001,22.25001 h 166.89429 c 12.3276,0 22.25003,-9.92238 22.25003,-22.25001 0,-12.32765 -9.92243,-22.25467 -22.25003,-22.25467 z m 0,11.125 h 97.35581 c 6.16387,0 11.12502,4.96596 11.12502,11.12967 0,6.16394 -4.96115,11.12499 -11.12502,11.12499 h -97.35581 c -6.16385,0 -11.12499,-4.96105 -11.12499,-11.12499 0,-6.16371 4.96114,-11.12967 11.12499,-11.12967 z m -0.34314,41.81276 c -3.33304,9.47588 -6.76051,19.32377 -10.34692,29.55215 l -1.39182,3.56201 h 41.11707 l 8.51529,-23.46787 c 1.16697,-3.19643 2.36479,-6.41298 3.4796,-9.64629 h -41.03008 c -0.11627,0 -0.22712,6.4e-4 -0.34314,0 z m 124.55457,0 c 1.10171,3.27558 2.21555,6.50167 3.39258,9.64629 2.71382,7.25135 5.29072,14.64369 7.82424,22.07627 l 0.60409,1.3916 h 2.17474 41.19923 l -1.47401,-3.56201 c -3.59234,-10.24464 -7.13981,-20.08889 -10.60787,-29.55215 -0.14488,0.002 -0.28471,0 -0.43014,0 z" style="font-style:normal;font-variant:normal;font-weight:500;font-stretch:normal;font-size:12.0041132px;line-height:125%;font-family:Ubuntu;-inkscape-font-specification:'Ubuntu Medium';text-align:start;letter-spacing:0px;word-spacing:0px;writing-mode:lr-tb;text-anchor:start;display:inline;fill:#f7f7f7;fill-opacity:1;stroke:none;stroke-width:5.73410416;enable-background:new"/></g><g style="display:none;stroke-width:5.73410416" inkscape:label="guides" id="layer2"><path style="display:inline;fill:#0000ff;fill-opacity:0.08118083;stroke:#0000ff;stroke-width:5.73410416;enable-background:new" d="m 166.05406,17.999974 h 179.89189 c 145.29729,0 166.05406,20.73726 166.05406,165.899046 v 144.20253 c 0,145.16118 -20.75677,165.89848 -166.05406,165.89848 H 166.05406 C 20.756747,494.00003 -7.5e-6,473.26273 -7.5e-6,328.10155 V 183.89902 C -7.5e-6,38.737234 20.756747,17.999974 166.05406,17.999974 Z" id="path3774" inkscape:connector-curvature="0" sodipodi:nodetypes="sssssssss"/><circle r="143.99997" cy="256" cx="256" id="path4118" style="color:#000000;display:inline;overflow:visible;visibility:visible;fill:#0000ff;fill-opacity:0.08118083;stroke:#0000ff;stroke-width:5.73410416;stroke-miterlimit:4;stroke-dasharray:none;marker:none;enable-background:accumulate"/><rect y="120" x="120" height="272" width="272" id="rect4152" style="color:#000000;display:inline;overflow:visible;visibility:visible;fill:#0000ff;fill-opacity:0.08118083;stroke:#0000ff;stroke-width:5.73410416;stroke-linecap:round;stroke-linejoin:round;stroke-miterlimit:4;stroke-dasharray:none;stroke-dashoffset:0;stroke-opacity:1;marker:none;enable-background:accumulate"/><rect y="136" x="104" height="240" width="304" id="rect4154" style="color:#000000;display:inline;overflow:visible;visibility:visible;fill:#0000ff;fill-opacity:0.08118083;stroke:#0000ff;stroke-width:5.73410416;stroke-linecap:round;stroke-linejoin:round;stroke-miterlimit:4;stroke-dasharray:none;stroke-dashoffset:0;stroke-opacity:1;marker:none;enable-background:accumulate"/><rect y="104" x="136" height="304" width="240" id="rect4156" style="color:#000000;display:inline;overflow:visible;visibility:visible;fill:#0000ff;fill-opacity:0.08118083;stroke:#0000ff;stroke-width:5.73410416;stroke-linecap:round;stroke-linejoin:round;stroke-miterlimit:4;stroke-dasharray:none;stroke-dashoffset:0;stroke-opacity:1;marker:none;enable-background:accumulate"/></g></g></g>
</g>
<script xmlns=""/></svg>