<?xml version="1.0" encoding="UTF-8" standalone="no"?>
<svg
   width="2192"
   height="2192"
   viewBox="0 0 2192 2192"
   version="1.1"
   id="svg1"
   xmlns="http://www.w3.org/2000/svg">
  <defs
     id="defs1" />
  <path
     d="m 1032,264 v 640 q 0,61 -35.5,111 -35.5,50 -92.5,70 v 779 q 0,52 -38,90 -38,38 -90,38 H 648 q -52,0 -90,-38 -38,-38 -38,-90 V 1085 Q 463,1065 427.5,1015 392,965 392,904 V 264 q 0,-26 19,-45 19,-19 45,-19 26,0 45,19 19,19 19,45 v 416 q 0,26 19,45 19,19 45,19 26,0 45,-19 19,-19 19,-45 V 264 q 0,-26 19,-45 19,-19 45,-19 26,0 45,19 19,19 19,45 v 416 q 0,26 19,45 19,19 45,19 26,0 45,-19 19,-19 19,-45 V 264 q 0,-26 19,-45 19,-19 45,-19 26,0 45,19 19,19 19,45 z m 768,0 v 1600 q 0,52 -38,90 -38,38 -90,38 h -128 q -52,0 -90,-38 -38,-38 -38,-90 v -512 h -224 q -13,0 -22.5,-9.5 -9.5,-9.5 -9.5,-22.5 V 520 q 0,-132 94,-226 94,-94 226,-94 h 256 q 26,0 45,19 19,19 19,45 z"
     fill="#ffffff"
     id="path1"
     style="fill:#ffffff" />
</svg>
