<?xml version="1.0" encoding="UTF-8" standalone="no"?>
<svg
   viewBox="0 0 1792 1792"
   version="1.1"
   id="svg271"
   sodipodi:docname="favicon-api.svg"
   xml:space="preserve"
   inkscape:version="1.2.1 (9c6d41e410, 2022-07-14, custom)"
   inkscape:export-filename="favicon-api.png"
   inkscape:export-xdpi="13.72"
   inkscape:export-ydpi="13.72"
   xmlns:inkscape="http://www.inkscape.org/namespaces/inkscape"
   xmlns:sodipodi="http://sodipodi.sourceforge.net/DTD/sodipodi-0.dtd"
   xmlns="http://www.w3.org/2000/svg"
   xmlns:svg="http://www.w3.org/2000/svg"><defs
     id="defs275" /><sodipodi:namedview
     id="namedview273"
     pagecolor="#ffffff"
     bordercolor="#666666"
     borderopacity="1.0"
     inkscape:showpageshadow="2"
     inkscape:pageopacity="0.0"
     inkscape:pagecheckerboard="0"
     inkscape:deskcolor="#d1d1d1"
     showgrid="false"
     inkscape:zoom="0.42092096"
     inkscape:cx="898.03083"
     inkscape:cy="898.03083"
     inkscape:window-width="1920"
     inkscape:window-height="963"
     inkscape:window-x="0"
     inkscape:window-y="36"
     inkscape:window-maximized="1"
     inkscape:current-layer="svg271" /><rect
     rx="279.90094"
     ry="279.89218"
     height="1791.3102"
     width="1791.3658"
     y=".45423824"
     x=".43064034"
     fill="#0082c9"
     id="rect267"
     style="fill:#80d2ff;fill-opacity:1" /><path
     d="M849.81604 171.87247v569.22395q0 54.25415-31.57414 98.72477-31.57414 44.47063-82.27065 62.25887v692.85224q0 46.2495-33.79767 80.0471-33.79767 33.7977-80.04712 33.7977H508.28167q-46.24945 0-80.04712-33.7977-33.79767-33.7976-33.79767-80.0471V902.08006q-50.69651-17.78824-82.27065-62.25887-31.57414-44.47062-31.57414-98.72477V171.87247q0-23.12473 16.89884-40.02356 16.89883-16.89884 40.02356-16.89884 23.12472 0 40.02355 16.89884 16.89884 16.89883 16.89884 40.02356v369.99556q0 23.12473 16.89884 40.02356 16.89883 16.89884 40.02356 16.89884 23.12472 0 40.02355-16.89884 16.89884-16.89883 16.89884-40.02356V171.87247q0-23.12473 16.89884-40.02356 16.89883-16.89884 40.02356-16.89884 23.12472 0 40.02355 16.89884 16.89884 16.89883 16.89884 40.02356v369.99556q0 23.12473 16.89884 40.02356 16.89883 16.89884 40.02356 16.89884 23.12472 0 40.02355-16.89884 16.89884-16.89883 16.89884-40.02356V171.87247q0-23.12473 16.89884-40.02356 16.89883-16.89884 40.02356-16.89884 23.12472 0 40.02355 16.89884 16.89884 16.89883 16.89884 40.02356zm683.06876 0V1594.9323q0 46.2495-33.7977 80.0471-33.7976 33.7977-80.0471 33.7977h-113.8448q-46.2494 0-80.0471-33.7977-33.7977-33.7976-33.7977-80.0471v-455.3791H992.12198q-11.5623 0-20.0117-8.4495-8.4494-8.4494-8.4494-20.0117V399.56205q0-117.40244 83.60472-201.00721 83.6048-83.60477 201.0072-83.60477h227.6896q23.1247 0 40.0236 16.89884 16.8988 16.89883 16.8988 40.02356z"
     fill="#fff"
     id="path269" /><path
     d="m 269.39855,896.70282 q -91.59464,0 -157.35497,54.68092 -65.760316,54.68086 -65.760316,130.84356 0,65.4218 45.797355,114.2441 45.797361,48.8222 118.603391,64.4454 v -61.5161 q -41.10017,-13.6703 -67.52172,-45.4047 -26.42154,-31.7344 -26.42154,-71.7687 0,-52.728 44.62305,-89.83286 44.62305,-37.10492 108.03475,-37.10492 63.4118,0 108.03485,37.10492 44.62307,37.10486 44.62307,89.83286 v 29.2934 h 292.39852 q 9.39432,8.788 22.31153,14.1585 12.91721,5.3704 25.83432,5.3704 24.66017,0 41.68735,-14.1585 17.0273,-14.1584 17.0273,-34.6638 0,-19.5289 -17.0273,-34.1756 -17.02718,-14.6466 -41.68735,-14.6466 -12.91711,0 -25.83432,5.3704 -12.91721,5.3705 -22.31153,14.1584 H 490.16532 Q 473.72522,985.55924 412.07497,941.13106 350.42472,896.70282 269.39855,896.70282 Z m 493.20229,0 q -56.36591,0 -103.92467,21.48179 -47.55888,21.48179 -78.09047,56.63373 h 100.98908 q 17.61437,-9.76438 38.16445,-14.64659 20.55008,-4.88223 42.86161,-4.88223 63.41183,0 108.03483,37.10492 44.62309,37.10486 44.62309,89.83286 0,52.7281 -44.62309,89.833 -44.623,37.1049 -108.03483,37.1049 -22.31153,0 -41.10016,-4.3941 -18.78864,-4.3939 -36.40301,-13.1819 l -151.48355,212.865 q -23.4858,3.9057 -38.16445,17.0877 -14.67867,13.1821 -14.67867,31.7345 0,20.5053 17.61437,34.6638 17.61438,14.1584 41.10017,14.1584 24.66016,0 41.68735,-14.1584 17.02719,-14.1585 17.02719,-34.6638 0,-3.9058 -0.58708,-7.3234 -0.58718,-3.4175 -2.93572,-10.2526 l 120.95197,-171.8543 q 12.91722,1.9528 25.24725,2.9293 12.33002,0.9765 21.72434,0.9765 92.76898,0 157.94226,-54.1928 65.17311,-54.1927 65.17311,-131.3318 0,-76.1627 -65.17311,-130.84356 -65.17328,-54.68092 -157.94226,-54.68092 z M 269.39855,1033.4051 q -23.4858,0 -41.10017,14.6466 -17.61437,14.6467 -17.61437,34.1756 0,17.576 14.67866,30.758 14.67866,13.182 36.9902,18.0643 l 130.34628,182.5951 q -35.22875,28.317 -55.77883,63.9572 -20.55008,35.6403 -20.55008,75.6745 0,77.1391 65.76033,131.3318 65.76032,54.1927 157.35497,54.1927 89.24612,0 153.83219,-51.2633 64.58595,-51.2634 69.28311,-124.4967 h -70.45738 q -3.5229,49.7987 -47.55887,83.486 -44.03588,33.6873 -105.09905,33.6873 -63.41169,0 -108.03475,-37.1049 -44.62307,-37.1049 -44.62307,-89.8329 0,-41.0107 28.77014,-73.7217 28.77014,-32.7108 73.3932,-46.381 L 323.41603,1100.7798 q 2.34853,-5.8587 3.52279,-10.2527 1.17437,-4.394 1.17437,-8.2998 0,-19.5289 -17.02729,-34.1756 -17.02719,-14.6466 -41.68735,-14.6466 z"
     id="path317"
     style="stroke-width:21.4161" /></svg>
