<?xml version="1.0" encoding="UTF-8" standalone="no"?>
<svg
   xmlns:dc="http://purl.org/dc/elements/1.1/"
   xmlns:cc="http://creativecommons.org/ns#"
   xmlns:rdf="http://www.w3.org/1999/02/22-rdf-syntax-ns#"
   xmlns:svg="http://www.w3.org/2000/svg"
   xmlns="http://www.w3.org/2000/svg"
   xmlns:sodipodi="http://sodipodi.sourceforge.net/DTD/sodipodi-0.dtd"
   xmlns:inkscape="http://www.inkscape.org/namespaces/inkscape"
   width="1792"
   height="1792"
   viewBox="0 0 1792 1792"
   version="1.1"
   id="svg4"
   sodipodi:docname="favicon.svg"
   inkscape:version="0.92.4 (5da689c313, 2019-01-14)">
  <metadata
     id="metadata10">
    <rdf:RDF>
      <cc:Work
         rdf:about="">
        <dc:format>image/svg+xml</dc:format>
        <dc:type
           rdf:resource="http://purl.org/dc/dcmitype/StillImage" />
      </cc:Work>
    </rdf:RDF>
  </metadata>
  <defs
     id="defs8" />
  <sodipodi:namedview
     pagecolor="#ffffff"
     bordercolor="#666666"
     borderopacity="1"
     objecttolerance="10"
     gridtolerance="10"
     guidetolerance="10"
     inkscape:pageopacity="0"
     inkscape:pageshadow="2"
     inkscape:window-width="1868"
     inkscape:window-height="1051"
     id="namedview6"
     showgrid="false"
     inkscape:snap-smooth-nodes="false"
     inkscape:object-nodes="false"
     inkscape:zoom="0.37249375"
     inkscape:cx="1148.918"
     inkscape:cy="894.66024"
     inkscape:window-x="52"
     inkscape:window-y="0"
     inkscape:window-maximized="1"
     inkscape:current-layer="svg4" />
  <rect
     style="fill:#0082c9;stroke-width:13.99482822"
     rx="279.90094"
     ry="279.89218"
     height="1791.3102"
     width="1791.3658"
     y="0.45423824"
     x="0.43064034"
     id="rect2" />
  <path
     d="m 849.81604,171.87247 v 569.22395 q 0,54.25415 -31.57414,98.72477 -31.57414,44.47063 -82.27065,62.25887 v 692.85224 q 0,46.2495 -33.79767,80.0471 -33.79767,33.7977 -80.04712,33.7977 H 508.28167 q -46.24945,0 -80.04712,-33.7977 -33.79767,-33.7976 -33.79767,-80.0471 V 902.08006 Q 343.74037,884.29182 312.16623,839.82119 280.59209,795.35057 280.59209,741.09642 V 171.87247 q 0,-23.12473 16.89884,-40.02356 16.89883,-16.89884 40.02356,-16.89884 23.12472,0 40.02355,16.89884 16.89884,16.89883 16.89884,40.02356 v 369.99556 q 0,23.12473 16.89884,40.02356 16.89883,16.89884 40.02356,16.89884 23.12472,0 40.02355,-16.89884 16.89884,-16.89883 16.89884,-40.02356 V 171.87247 q 0,-23.12473 16.89884,-40.02356 16.89883,-16.89884 40.02356,-16.89884 23.12472,0 40.02355,16.89884 16.89884,16.89883 16.89884,40.02356 v 369.99556 q 0,23.12473 16.89884,40.02356 16.89883,16.89884 40.02356,16.89884 23.12472,0 40.02355,-16.89884 16.89884,-16.89883 16.89884,-40.02356 V 171.87247 q 0,-23.12473 16.89884,-40.02356 16.89883,-16.89884 40.02356,-16.89884 23.12472,0 40.02355,16.89884 16.89884,16.89883 16.89884,40.02356 z m 683.06876,0 V 1594.9323 q 0,46.2495 -33.7977,80.0471 -33.7976,33.7977 -80.0471,33.7977 h -113.8448 q -46.2494,0 -80.0471,-33.7977 -33.7977,-33.7976 -33.7977,-80.0471 V 1139.5532 H 992.12198 q -11.5623,0 -20.0117,-8.4495 -8.4494,-8.4494 -8.4494,-20.0117 V 399.56205 q 0,-117.40244 83.60472,-201.00721 83.6048,-83.60477 201.0072,-83.60477 h 227.6896 q 23.1247,0 40.0236,16.89884 16.8988,16.89883 16.8988,40.02356 z"
     id="path2"
     inkscape:connector-curvature="0"
     style="fill:#ffffff;stroke-width:0.8894124" />
</svg>
