<?xml version="1.0" encoding="UTF-8" standalone="no"?>
<svg
   viewBox="0 0 1792 1792"
   version="1.1"
   id="svg6"
   sodipodi:docname="favicon-doc.svg"
   xml:space="preserve"
   inkscape:version="1.2.1 (9c6d41e410, 2022-07-14, custom)"
   inkscape:export-filename="favicon-doc.png"
   inkscape:export-xdpi="13.72"
   inkscape:export-ydpi="13.72"
   xmlns:inkscape="http://www.inkscape.org/namespaces/inkscape"
   xmlns:sodipodi="http://sodipodi.sourceforge.net/DTD/sodipodi-0.dtd"
   xmlns="http://www.w3.org/2000/svg"
   xmlns:svg="http://www.w3.org/2000/svg"><defs
     id="defs10" /><sodipodi:namedview
     id="namedview8"
     pagecolor="#ffffff"
     bordercolor="#666666"
     borderopacity="1.0"
     inkscape:showpageshadow="2"
     inkscape:pageopacity="0.0"
     inkscape:pagecheckerboard="0"
     inkscape:deskcolor="#d1d1d1"
     showgrid="false"
     inkscape:zoom="0.42092096"
     inkscape:cx="895.65509"
     inkscape:cy="895.65509"
     inkscape:window-width="1920"
     inkscape:window-height="963"
     inkscape:window-x="0"
     inkscape:window-y="36"
     inkscape:window-maximized="1"
     inkscape:current-layer="svg6" /><rect
     rx="279.90094"
     ry="279.89218"
     height="1791.3102"
     width="1791.3658"
     y=".45423824"
     x=".43064034"
     fill="#0082c9"
     id="rect2" /><path
     d="M849.81604 171.87247v569.22395q0 54.25415-31.57414 98.72477-31.57414 44.47063-82.27065 62.25887v692.85224q0 46.2495-33.79767 80.0471-33.79767 33.7977-80.04712 33.7977H508.28167q-46.24945 0-80.04712-33.7977-33.79767-33.7976-33.79767-80.0471V902.08006q-50.69651-17.78824-82.27065-62.25887-31.57414-44.47062-31.57414-98.72477V171.87247q0-23.12473 16.89884-40.02356 16.89883-16.89884 40.02356-16.89884 23.12472 0 40.02355 16.89884 16.89884 16.89883 16.89884 40.02356v369.99556q0 23.12473 16.89884 40.02356 16.89883 16.89884 40.02356 16.89884 23.12472 0 40.02355-16.89884 16.89884-16.89883 16.89884-40.02356V171.87247q0-23.12473 16.89884-40.02356 16.89883-16.89884 40.02356-16.89884 23.12472 0 40.02355 16.89884 16.89884 16.89883 16.89884 40.02356v369.99556q0 23.12473 16.89884 40.02356 16.89883 16.89884 40.02356 16.89884 23.12472 0 40.02355-16.89884 16.89884-16.89883 16.89884-40.02356V171.87247q0-23.12473 16.89884-40.02356 16.89883-16.89884 40.02356-16.89884 23.12472 0 40.02355 16.89884 16.89884 16.89883 16.89884 40.02356zm683.06876 0V1594.9323q0 46.2495-33.7977 80.0471-33.7976 33.7977-80.0471 33.7977h-113.8448q-46.2494 0-80.0471-33.7977-33.7977-33.7976-33.7977-80.0471v-455.3791H992.12198q-11.5623 0-20.0117-8.4495-8.4494-8.4494-8.4494-20.0117V399.56205q0-117.40244 83.60472-201.00721 83.6048-83.60477 201.0072-83.60477h227.6896q23.1247 0 40.0236 16.89884 16.8988 16.89883 16.8988 40.02356z"
     fill="#fff"
     id="path4" /><path
     d="m 599.47385,1151.0527 v -54.4091 q 37.4063,-15.8694 76.5129,-23.8041 39.1066,-7.9346 82.1806,-7.9346 29.4716,0 57.8097,4.5341 28.3381,4.5341 55.5427,11.3352 v 49.8751 q -27.2046,-10.2017 -54.9759,-15.3026 -27.7714,-5.1008 -58.3765,-5.1008 -43.074,0 -82.7474,10.7684 -39.6733,10.7685 -75.9461,30.0384 z m 0,249.3755 v -55.5427 q 37.4063,-15.8693 76.5129,-23.2373 39.1066,-7.3679 82.1806,-7.3679 29.4716,0 57.8097,4.5341 28.3381,4.5341 55.5427,11.3353 v 49.8751 q -27.2046,-10.2017 -54.9759,-15.3026 -27.7714,-5.1009 -58.3765,-5.1009 -43.074,0 -82.7474,10.2018 -39.6733,10.2017 -75.9461,30.6051 z m 0,-124.6877 v -54.4092 q 37.4063,-15.8694 76.5129,-23.804 39.1066,-7.9347 82.1806,-7.9347 29.4716,0 57.8097,4.5341 28.3381,4.5341 55.5427,11.3352 v 49.8751 q -27.2046,-10.2017 -54.9759,-15.3025 -27.7714,-5.1009 -58.3765,-5.1009 -43.074,0 -82.7474,10.7685 -39.6733,10.7685 -75.9461,30.0384 z m -353.6598,185.8981 q 61.2103,0 118.4534,14.169 57.243,14.1691 112.7857,42.5072 v -484.0151 q -51.0086,-34.0058 -110.5187,-52.70887 -59.5101,-18.7032 -120.7204,-18.7032 -43.0739,0 -84.4476,10.7685 -41.37366,10.7685 -83.314088,26.63777 v 491.9498 q 35.139278,-15.8693 79.913488,-23.2372 44.7743,-7.3679 87.8482,-7.3679 z m 299.2506,56.6762 q 56.6762,-28.3381 111.0854,-42.5072 54.4092,-14.169 115.6196,-14.169 43.0739,0 88.9817,6.8011 45.9077,6.8012 78.7799,18.1364 v -486.2822 q -38.5398,-19.26987 -81.6138,-28.33807 -43.0739,-9.0682 -86.1478,-9.0682 -61.2104,0 -118.4534,18.7032 -57.243,18.70307 -108.2516,52.70887 z m -34.0058,102.0173 q -57.8097,-43.074 -125.8212,-66.3112 -68.0115,-23.2373 -139.4236,-23.2373 -41.9404,0 -81.6138,10.2017 -39.67336,10.2017 -79.346741,24.9376 -26.071067,12.4687 -50.441847,-3.4006 -24.37079,-15.8694 -24.37079,-45.341 V 992.35923 q 0,-17.0028 7.93467,-31.1719 7.93468,-14.1691 23.80403,-22.1037 47.608037,-22.6705 99.183378,-33.439 51.5754,-10.7685 104.8511,-10.7685 71.4121,0 138.8568,19.2699 67.4447,19.2699 126.388,58.9433 57.8098,-39.6734 124.121,-58.9433 66.3112,-19.2699 136.5898,-19.2699 53.2756,0 104.2842,10.7685 51.0087,10.7685 98.6167,33.439 15.86945,7.9346 24.37085,22.1037 8.5014,14.1691 8.5014,31.1719 v 524.82207 q 0,31.7387 -25.5043,48.1748 -25.50435,16.4361 -50.44185,0.5668 -38.5399,-15.8694 -78.2133,-25.5043 -39.6733,-9.635 -81.6137,-9.635 -71.4121,0 -137.1566,23.804 -65.7444,23.804 -123.5542,65.7445 z m -233.5061,-372.9297 z"
     id="path156"
     style="stroke-width:22.6705" /></svg>
