<svg xmlns="http://www.w3.org/2000/svg" width="2867" height="1792"><defs/><rect width="100%" height="100%" fill="#bebdbd"/><path fill="#838383" d="M1399.8143 458.08516v336.85757q0 32.10674-18.6851 58.42373-18.6851 26.317-48.6864 36.8438v410.01884q0 27.3697-20.001 47.3706-20.0009 20.0009-47.3706 20.0009h-67.3715q-27.3697 0-47.3706-20.0009t-20.0009-47.3706V890.21026q-30.0014-10.5268-48.6864-36.8438-18.6851-26.31699-18.6851-58.42373V458.08516q0-13.68484 10.0005-23.6853 10.0004-10.00046 23.6853-10.00046 13.6848 0 23.6853 10.00046 10.0004 10.00046 10.0004 23.6853v218.95742q0 13.68484 10.0005 23.6853 10.0004 10.00046 23.6853 10.00046 13.6848 0 23.6853-10.00046 10.0004-10.00046 10.0004-23.6853V458.08516q0-13.68484 10.0005-23.6853 10.0004-10.00046 23.6853-10.00046 13.6848 0 23.6853 10.00046 10.0004 10.00046 10.0004 23.6853v218.95742q0 13.68484 10.0005 23.6853 10.0005 10.00046 23.6853 10.00046 13.6848 0 23.6853-10.00046 10.0004-10.00046 10.0004-23.6853V458.08516q0-13.68484 10.0005-23.6853 10.0005-10.00046 23.6853-10.00046 13.6848 0 23.6853 10.00046 10.0005 10.00046 10.0005 23.6853zm404.229 0v842.14394q0 27.3697-20.0009 47.3706t-47.3706 20.0009h-67.3715q-27.3697 0-47.3706-20.0009t-20.0009-47.3706V1030.743h-117.9002q-6.8424 0-11.8426-5.0002-5.0002-5.0002-5.0002-11.8427V592.82819q0-69.47688 49.4759-118.95283 49.476-49.47596 118.9528-49.47596h134.7431q13.6848 0 23.6853 10.00046 10.0004 10.00046 10.0004 23.6853z"/></svg>