<svg xmlns="http://www.w3.org/2000/svg" width="1792" height="1792"><defs/><rect width="100%" height="100%" fill="#bebdbd"/><path fill="#838383" d="M862.314 458.085v336.858q0 32.106-18.685 58.423t-48.686 36.844v410.02q0 27.369-20.001 47.37-20.001 20-47.37 20H660.2q-27.37 0-47.37-20-20.002-20.001-20.002-47.37V890.21q-30.001-10.527-48.686-36.844t-18.685-58.423V458.085q0-13.685 10-23.685 10-10 23.685-10 13.685 0 23.686 10 10 10 10 23.685v218.958q0 13.684 10 23.685 10.001 10 23.686 10t23.685-10q10-10 10-23.685V458.085q0-13.685 10.001-23.685 10-10 23.685-10 13.685 0 23.686 10 10 10 10 23.685v218.958q0 13.684 10 23.685 10.001 10 23.686 10t23.685-10q10-10 10-23.685V458.085q0-13.685 10.001-23.685 10-10 23.685-10 13.685 0 23.686 10 10 10 10 23.685zm404.23 0v842.144q0 27.37-20.002 47.37-20 20.002-47.37 20.002H1131.8q-27.37 0-47.37-20.001-20.001-20.001-20.001-47.37v-269.487h-117.9q-6.843 0-11.843-5t-5-11.843V592.828q0-69.477 49.476-118.953t118.953-49.476h134.743q13.684 0 23.685 10 10 10.001 10 23.686z"/></svg>